<svg xmlns="http://www.w3.org/2000/svg" xmlns:xlink="http://www.w3.org/1999/xlink" width="102" height="102" viewBox="0 0 102 102">
  <defs>
    <clipPath id="clip-telegram">
      <rect width="102" height="102"/>
    </clipPath>
  </defs>
  <g id="telegram" clip-path="url(#clip-telegram)">
    <path id="telegram_2_" data-name="telegram (2)" d="M5.892,30.849,51.921,11.164C73.839,2.113,78.394.541,81.362.489a5.218,5.218,0,0,1,3.058.911,3.292,3.292,0,0,1,1.123,2.122,13.729,13.729,0,0,1,.132,3.085C84.488,19,79.349,49.066,76.734,62.944c-1.106,5.872-3.285,7.841-5.394,8.034-4.583.419-8.064-3.007-12.5-5.9L41.223,53.335c-7.793-5.1-2.741-7.9,1.7-12.48,1.162-1.2,21.357-19.435,21.748-21.09A1.592,1.592,0,0,0,64.3,18.38a1.829,1.829,0,0,0-1.634-.157q-1.045.235-33.292,21.847-4.725,3.221-8.559,3.139C18,43.148,12.58,41.626,8.55,40.326,3.607,38.73-.321,37.887.021,35.178q.267-2.117,5.872-4.329Z" transform="translate(5.643 15.75)" fill="#fff" fill-rule="evenodd"/>
  </g>
</svg>
