<svg xmlns="http://www.w3.org/2000/svg" xmlns:xlink="http://www.w3.org/1999/xlink" width="102" height="102" viewBox="0 0 102 102">
  <defs>
    <clipPath id="clip-twitter">
      <rect width="102" height="102"/>
    </clipPath>
  </defs>
  <g id="twitter" clip-path="url(#clip-twitter)">
    <path id="twitter_5_" data-name="twitter (5)" d="M28.411,74.054C62.5,74.054,81.15,45.748,81.15,21.2c0-.8,0-1.6-.054-2.4a37.758,37.758,0,0,0,9.248-9.615A36.885,36.885,0,0,1,79.7,12.109,18.629,18.629,0,0,0,87.846,1.835a37.086,37.086,0,0,1-11.77,4.509A18.562,18.562,0,0,0,44.489,23.285a52.538,52.538,0,0,1-21.16-5.633A52.648,52.648,0,0,1,6.288,3.877a18.613,18.613,0,0,0,5.739,24.8,18.342,18.342,0,0,1-8.413-2.325v.235A18.572,18.572,0,0,0,18.484,44.792a18.464,18.464,0,0,1-8.369.319,18.565,18.565,0,0,0,17.317,12.9A37.128,37.128,0,0,1,0,65.71a52.4,52.4,0,0,0,28.411,8.329" transform="translate(5.828 14.229)" fill="#fff"/>
  </g>
</svg>
