<svg xmlns="http://www.w3.org/2000/svg" width="28" height="28" viewBox="0 0 28 28">
  <path id="_5046402361595501401" data-name="5046402361595501401" d="M29.6,5.2a.761.761,0,0,0-.9-.1,11.844,11.844,0,0,1-12-2.8.967.967,0,0,0-1.4,0,11.844,11.844,0,0,1-12,2.8.761.761,0,0,0-.9.1A1.234,1.234,0,0,0,2,6C2,21.7,8.9,26.9,15.6,29.9a.85.85,0,0,0,.8,0C23.1,26.9,30,21.7,30,6A1.235,1.235,0,0,0,29.6,5.2Zm-7.9,8.5-6,6a.967.967,0,0,1-1.4,0l-3-3a.99.99,0,0,1,1.4-1.4L15,17.6l5.3-5.3a.99.99,0,0,1,1.4,1.4Z" transform="translate(-2 -2)"/>
</svg>
