<?xml version="1.0" standalone="no"?>
<!DOCTYPE svg PUBLIC "-//W3C//DTD SVG 20010904//EN"
 "http://www.w3.org/TR/2001/REC-SVG-20010904/DTD/svg10.dtd">
<svg version="1.0" xmlns="http://www.w3.org/2000/svg"
 width="282.000000pt" height="282.000000pt" viewBox="0 0 282.000000 282.000000"
 preserveAspectRatio="xMidYMid meet">
<metadata>
Created by potrace 1.14, written by Peter Selinger 2001-2017
</metadata>
<g transform="translate(0.000000,282.000000) scale(0.100000,-0.100000)"
fill="#000000" stroke="none">
<path d="M2710 2511 c-27 -19 -89 -45 -157 -66 -32 -10 -234 -13 -895 -14
-469 0 -864 -3 -878 -6 -14 -3 -41 -8 -60 -11 -123 -21 -299 -115 -401 -215
-119 -116 -195 -259 -235 -439 -10 -45 -12 -1460 -2 -1460 4 0 33 13 65 29
132 67 103 65 1003 67 448 1 842 4 875 8 309 30 604 273 689 567 16 54 20 70
32 134 4 23 9 1290 5 1403 -1 26 -8 27 -41 3z"/>
</g>
</svg>
