<svg xmlns="http://www.w3.org/2000/svg" xmlns:xlink="http://www.w3.org/1999/xlink" width="150" height="150" viewBox="0 0 150 150">
  <defs>
    <clipPath id="clip-binancechainwallet">
      <rect width="150" height="150"/>
    </clipPath>
  </defs>
  <g id="binancechainwallet" clip-path="url(#clip-binancechainwallet)">
    <path id="binancedex" d="M230.194,404.618v14.317l-12.483,7.336-12.128-7.336V404.618l12.128,7.336ZM163.4,355.1l12.128,7.336v24.552l20.884,12.483v14.317L163.4,394.324Zm108.621,0v39.283l-33.367,19.464V399.53l20.884-12.483V362.495Zm-33.426-19.464,12.483,7.336h0v14.317l-20.884,12.483v24.907l-12.128,7.336L206,394.679V369.713l-21.653-12.483V342.912l12.483-7.336,20.884,12.483Zm-54.251,31.888,12.128,7.336v14.317l-12.128-7.336Zm66.735,0v14.317l-12.128,7.336V374.86Zm-75.55-44.371,12.483,7.336-12.483,7.336v14.317L163.4,344.805V330.488Zm84.365,0,12.483,7.336v14.317l-12.483,7.336V337.824l-12.128-7.336Zm-42.182,0,12.483,7.336-12.483,7.336-12.128-7.336Zm0-24.552,33.367,19.464L238.95,325.4l-20.884-12.483-21.3,12.483-12.128-7.336Z" transform="translate(-142.888 -287.436)" fill="#f3ba2f"/>
  </g>
</svg>
