<svg xmlns="http://www.w3.org/2000/svg" xmlns:xlink="http://www.w3.org/1999/xlink" width="150" height="150" viewBox="0 0 150 150">
  <defs>
    <clipPath id="clip-walletconnect">
      <rect width="150" height="150"/>
    </clipPath>
  </defs>
  <g id="walletconnect" clip-path="url(#clip-walletconnect)">
    <g id="Group_761" data-name="Group 761" transform="translate(27.22 38.982)">
      <path id="Path_999" data-name="Path 999" d="M9.669,11.922a54.735,54.735,0,0,1,76.249,0L88.45,14.4a2.582,2.582,0,0,1,0,3.731l-8.66,8.5a1.364,1.364,0,0,1-1.906,0l-3.486-3.4a38.178,38.178,0,0,0-53.183,0l-3.731,3.649a1.365,1.365,0,0,1-1.906,0l-8.687-8.5a2.582,2.582,0,0,1,0-3.731Zm94.167,17.537L111.543,37a2.582,2.582,0,0,1,0,3.731L76.768,74.8a2.729,2.729,0,0,1-3.812,0l-24.7-24.182a.71.71,0,0,0-.953,0L22.631,74.8a2.729,2.729,0,0,1-3.812,0l-34.8-34.04a2.583,2.583,0,0,1,0-3.731l7.707-7.543a2.729,2.729,0,0,1,3.812,0l24.7,24.182a.71.71,0,0,0,.953,0L45.86,29.486a2.729,2.729,0,0,1,3.812,0l24.7,24.182a.71.71,0,0,0,.953,0l24.7-24.182A2.7,2.7,0,0,1,103.836,29.459Z" transform="translate(0 0)" fill="#3a99fa"/>
    </g>
  </g>
</svg>
